<?xml version="1.0" encoding="UTF-8" standalone="no" ?>
<!DOCTYPE svg PUBLIC "-//W3C//DTD SVG 1.1//EN" "http://www.w3.org/Graphics/SVG/1.1/DTD/svg11.dtd">
<svg xmlns="http://www.w3.org/2000/svg" xmlns:xlink="http://www.w3.org/1999/xlink" version="1.1" width="500" height="500" viewBox="0 0 500 500" xml:space="preserve">
<desc>Created with Fabric.js 3.6.3</desc>
<defs>
</defs>
<g transform="matrix(2.330216315429673 0 0 2.330216315429673 249.37499800499972 249.375001995)"  >
<g style=""   >
		<g transform="matrix(1.3333333333333335 0 0 1.3333333333333335 -0.0005866666666491938 -42.78646666666667)"  >
<path style="stroke: none; stroke-width: 1; stroke-dasharray: none; stroke-linecap: butt; stroke-dashoffset: 0; stroke-linejoin: miter; stroke-miterlimit: 4; fill: rgb(255,255,255); fill-rule: nonzero; opacity: 1;"  transform=" translate(-49.99956000000001, -17.910149999999998)" d="m 31.867 20.086 c 0.65625 0 1.2734 -0.13281 1.8516 -0.35938 l 4.5156 5.6484 c 0.14844 0.1875 0.375 0.29688 0.60938 0.29688 h 22.32 c 0.23438 0 0.46094 -0.10938 0.60938 -0.29688 l 4.5156 -5.6484 c 0.57031 0.23438 1.1953 0.35938 1.8516 0.35938 c 2.7422 0 4.9688 -2.2266 4.9688 -4.9688 c 0 -2.7422 -2.2266 -4.9688 -4.9688 -4.9688 c -2.7344 0 -4.9688 2.2266 -4.9688 4.9688 c 0 1.5234 0.6875 2.8828 1.7656 3.7891 l -4.1484 5.1953 h -21.578 l -4.1484 -5.1953 c 1.0781 -0.91406 1.7656 -2.2734 1.7656 -3.7891 c 0 -2.7422 -2.2266 -4.9688 -4.9688 -4.9688 s -4.9688 2.2266 -4.9688 4.9688 c 0.007813 2.7422 2.2344 4.9688 4.9766 4.9688 z m 32.867 -4.9609 c 0 -1.875 1.5234 -3.4062 3.4062 -3.4062 s 3.4062 1.5312 3.4062 3.4062 s -1.5312 3.4062 -3.4062 3.4062 s -3.4062 -1.5312 -3.4062 -3.4062 z m -32.867 -3.4062 c 1.875 0 3.4062 1.5312 3.4062 3.4062 s -1.5234 3.4062 -3.4062 3.4062 c -1.8828 0 -3.4062 -1.5234 -3.4062 -3.4062 s 1.5234 -3.4062 3.4062 -3.4062 z" stroke-linecap="round" />
</g>
		<g transform="matrix(1.3333333333333335 0 0 1.3333333333333335 0.009853333333339265 -26.042319999999997)"  >
<path style="stroke: none; stroke-width: 1; stroke-dasharray: none; stroke-linecap: butt; stroke-dashoffset: 0; stroke-linejoin: miter; stroke-miterlimit: 4; fill: rgb(255,255,255); fill-rule: nonzero; opacity: 1;"  transform=" translate(-50.00739, -30.46826)" d="m 15.125 32.648 c 2.4688 0 4.5234 -1.8203 4.8984 -4.1875 h 5.8125 l 5.3594 9.375 c 0.14063 0.24219 0.39844 0.39062 0.67969 0.39062 h 36.273 c 0.28125 0 0.53906 -0.14844 0.67969 -0.39062 l 5.3594 -9.375 h 5.8125 c 0.375 2.3672 2.4297 4.1875 4.8984 4.1875 c 2.7422 0 4.9688 -2.2266 4.9688 -4.9688 c 0 -2.7422 -2.2266 -4.9688 -4.9688 -4.9688 c -2.4688 0 -4.5234 1.8203 -4.8984 4.1875 h -6.2656 c -0.28125 0 -0.53906 0.14844 -0.67969 0.39062 l -5.3594 9.375 h -35.375 l -5.3594 -9.375 c -0.14063 -0.24219 -0.39844 -0.39062 -0.67969 -0.39062 h -6.2656 c -0.375 -2.3672 -2.4297 -4.1875 -4.8984 -4.1875 c -2.7422 0 -4.9688 2.2266 -4.9688 4.9688 c 0 2.7422 2.2344 4.9688 4.9766 4.9688 z m 69.75 -8.375 c 1.875 0 3.4062 1.5312 3.4062 3.4062 s -1.5312 3.4062 -3.4062 3.4062 s -3.4062 -1.5312 -3.4062 -3.4062 s 1.5312 -3.4062 3.4062 -3.4062 z m -69.75 0 c 1.875 0 3.4062 1.5312 3.4062 3.4062 s -1.5234 3.4062 -3.4062 3.4062 s -3.4062 -1.5312 -3.4062 -3.4062 s 1.5312 -3.4062 3.4062 -3.4062 z" stroke-linecap="round" />
</g>
		<g transform="matrix(1.3333333333333335 0 0 1.3333333333333335 -0.004746666666676447 42.786466666666705)"  >
<path style="stroke: none; stroke-width: 1; stroke-dasharray: none; stroke-linecap: butt; stroke-dashoffset: 0; stroke-linejoin: miter; stroke-miterlimit: 4; fill: rgb(255,255,255); fill-rule: nonzero; opacity: 1;"  transform=" translate(-49.99643999999999, -82.08985000000001)" d="m 68.133 79.914 c -0.65625 0 -1.2734 0.13281 -1.8516 0.35938 l -4.5156 -5.6484 c -0.14844 -0.1875 -0.375 -0.29688 -0.60938 -0.29688 h -22.32 c -0.23438 0 -0.46094 0.10938 -0.60938 0.29688 l -4.5156 5.6484 c -0.57031 -0.23438 -1.1953 -0.35938 -1.8516 -0.35938 c -2.7422 0 -4.9688 2.2266 -4.9688 4.9688 c 0 2.7422 2.2266 4.9688 4.9688 4.9688 c 2.7344 0 4.9688 -2.2266 4.9688 -4.9688 c 0 -1.5234 -0.6875 -2.8828 -1.7656 -3.7891 l 4.1484 -5.1953 h 21.57 l 4.1484 5.1953 c -1.0781 0.91406 -1.7656 2.2734 -1.7656 3.7891 c 0 2.7422 2.2266 4.9688 4.9688 4.9688 c 2.7422 0 4.9688 -2.2266 4.9688 -4.9688 c 0 -2.7422 -2.2266 -4.9688 -4.9688 -4.9688 z m -32.867 4.9609 c 0 1.875 -1.5234 3.4062 -3.4062 3.4062 s -3.4062 -1.5312 -3.4062 -3.4062 s 1.5312 -3.4062 3.4062 -3.4062 s 3.4062 1.5312 3.4062 3.4062 z m 32.867 3.4062 c -1.875 0 -3.4062 -1.5312 -3.4062 -3.4062 s 1.5234 -3.4062 3.4062 -3.4062 c 1.8828 0 3.4062 1.5234 3.4062 3.4062 s -1.5234 3.4062 -3.4062 3.4062 z" stroke-linecap="round" />
</g>
		<g transform="matrix(1.3333333333333335 0 0 1.3333333333333335 0.004813333333359537 26.042320000000018)"  >
<path style="stroke: none; stroke-width: 1; stroke-dasharray: none; stroke-linecap: butt; stroke-dashoffset: 0; stroke-linejoin: miter; stroke-miterlimit: 4; fill: rgb(255,255,255); fill-rule: nonzero; opacity: 1;"  transform=" translate(-50.003610000000016, -69.53174000000001)" d="m 84.875 67.352 c -2.4688 0 -4.5234 1.8203 -4.8984 4.1875 h -5.8125 l -5.3594 -9.375 c -0.14063 -0.24219 -0.39844 -0.39062 -0.67969 -0.39062 h -36.258 c -0.28125 0 -0.53906 0.14844 -0.67969 0.39062 l -5.3594 9.375 h -5.8125 c -0.375 -2.3672 -2.4297 -4.1875 -4.8984 -4.1875 c -2.7422 0 -4.9688 2.2266 -4.9688 4.9688 c 0 2.7422 2.2266 4.9688 4.9688 4.9688 c 2.4688 0 4.5234 -1.8203 4.8984 -4.1875 h 6.2656 c 0.28125 0 0.53906 -0.14844 0.67969 -0.39062 l 5.3594 -9.375 h 35.367 l 5.3594 9.375 c 0.14062 0.24219 0.39844 0.39062 0.67969 0.39062 h 6.2656 c 0.375 2.3672 2.4297 4.1875 4.8984 4.1875 c 2.7422 0 4.9688 -2.2266 4.9688 -4.9688 c 0 -2.7422 -2.2422 -4.9688 -4.9844 -4.9688 z m -69.75 8.375 c -1.875 0 -3.4062 -1.5312 -3.4062 -3.4062 s 1.5312 -3.4062 3.4062 -3.4062 s 3.4062 1.5312 3.4062 3.4062 s -1.5312 3.4062 -3.4062 3.4062 z m 69.75 0 c -1.875 0 -3.4062 -1.5312 -3.4062 -3.4062 s 1.5234 -3.4062 3.4062 -3.4062 s 3.4062 1.5312 3.4062 3.4062 s -1.5312 3.4062 -3.4062 3.4062 z" stroke-linecap="round" />
</g>
		<g transform="matrix(1.3333333333333335 0 0 1.3333333333333335 0 0.00040000000001150227)"  >
<path style="stroke: none; stroke-width: 1; stroke-dasharray: none; stroke-linecap: butt; stroke-dashoffset: 0; stroke-linejoin: miter; stroke-miterlimit: 4; fill: rgb(255,255,255); fill-rule: nonzero; opacity: 1;"  transform=" translate(-50, -50.0003)" d="m 64.617 49.219 h -29.234 c -0.39062 -3.1406 -3.0625 -5.5781 -6.3125 -5.5781 c -3.5078 0 -6.3594 2.8516 -6.3594 6.3594 s 2.8516 6.3594 6.3594 6.3594 c 3.2422 0 5.9219 -2.4375 6.3125 -5.5781 h 29.234 c 0.39062 3.1406 3.0625 5.5781 6.3125 5.5781 c 3.5078 0 6.3594 -2.8516 6.3594 -6.3594 s -2.8516 -6.3594 -6.3594 -6.3594 c -3.2422 0 -5.9219 2.4375 -6.3125 5.5781 z m -35.547 5.5781 c -2.6484 0 -4.7969 -2.1562 -4.7969 -4.7969 s 2.1562 -4.7969 4.7969 -4.7969 c 2.6484 0 4.7969 2.1562 4.7969 4.7969 s -2.1484 4.7969 -4.7969 4.7969 z m 46.656 -4.7969 c 0 2.6484 -2.1562 4.7969 -4.7969 4.7969 c -2.6484 0 -4.7969 -2.1562 -4.7969 -4.7969 s 2.1562 -4.7969 4.7969 -4.7969 c 2.6406 0 4.7969 2.1484 4.7969 4.7969 z" stroke-linecap="round" />
</g>
</g>
</g>
</svg>
